<svg class="[&amp;_*]:transition-colors" width="160px" height="42px" viewBox="0 0 160 42" version="1.1" xmlns="http://www.w3.org/2000/svg" xmlns:xlink="http://www.w3.org/1999/xlink" role="presentation">
      <defs>
        <polygon id="path-1" points="0 0 7.2294138 0 7.2294138 30.0986948 0 30.0986948"></polygon>
      </defs>
      <g id="Mockup" stroke="none" stroke-width="1" fill="none" fill-rule="evenodd">
        <g id="DK-/-Industries-|-Fashion,-Luxury-&amp;-Design" transform="translate(-640.000000, -30.000000)">
          <g id="logo-/-Jakala---Blu---Red---Base" transform="translate(640.000000, 30.000000)">
            <path d="M31.0246162,0 L21.3838926,26.7290345 L28.6776531,26.7290345 L30.0537705,22.1595426 L39.7972231,22.1595426 L41.3415451,26.7290345 L48.5416077,26.7290345 L38.9008841,0 L31.0246162,0 Z M34.928319,6.30118431 L37.8905273,16.4352113 L31.9954619,16.4352113 L34.928319,6.30118431 Z" id="Fill-1" fill="var(--logo-color, #fff)"></path>
            <path d="M90.5876933,0 L80.9458408,26.7290345 L88.2407302,26.7290345 L89.6179764,22.1595426 L99.3603002,22.1595426 L100.903493,26.7290345 L108.104685,26.7290345 L98.4639612,0 L90.5876933,0 Z M94.4913961,6.30118431 L97.4536044,16.4352113 L91.5574101,16.4352113 L94.4913961,6.30118431 Z" id="Fill-2" fill="var(--logo-color, #fff)"></path>
            <path d="M142.483008,0 L132.842285,26.7290345 L140.136045,26.7290345 L141.513292,22.1595426 L151.255615,22.1595426 L152.799937,26.7290345 L160,26.7290345 L150.359276,0 L142.483008,0 Z M146.386711,6.30118431 L149.34892,16.4352113 L143.453854,16.4352113 L146.386711,6.30118431 Z" id="Fill-3" fill="var(--logo-color, #fff)"></path>
            <polygon id="Fill-4" fill="var(--logo-color, #fff)" points="69.4345459 0.0142796623 60.6946768 12.4817848 60.6946768 0.0142796623 53.5228364 0.0142796623 53.5228364 26.7297145 60.6946768 26.7297145 60.6946768 13.7930205 69.5079238 26.7297145 78.2827884 26.7297145 68.3722601 13.1153031 77.917028 0.0142796623"></polygon>
            <polygon id="Fill-5" fill="var(--logo-color, #fff)" points="113.136826 0.0142796623 113.136826 26.7637137 128.50554 26.7637137 128.50554 21.0348492 120.277058 21.0348492 120.277058 0.0142796623"></polygon>
            <polygon id="Fill-6" fill="#E31F1B" points="8.99364364 35.5900183 8.99364364 39.8637172 12.7505907 42 16.5075378 39.8637172 16.5075378 35.5900183 12.7505907 33.4526022"></polygon>
            <polygon id="Fill-7" fill="#F00A0A" points="8.99364364 35.5900183 8.99364364 39.8637172 12.7505907 42 16.5075378 39.8637172 16.5075378 35.5900183 12.7505907 33.4526022"></polygon>
            <g id="Group-13" transform="translate(0.000000, 0.000227)">
              <path d="M9.1361096,23.4007399 C7.77241006,24.4025829 6.59610632,24.5941117 5.15564223,24.3209848 C3.96240513,24.0931902 3.22749751,23.6704668 2.49823434,23.2806094 L0,28.6094167 C2.80303474,30.6323689 6.00456777,31.0437591 9.1361096,30.0985815 L9.1361096,23.4007399 Z" id="Fill-8" fill="var(--logo-color, #fff)"></path>
              <g id="Group-12" transform="translate(9.136110, 0.000000)">
                <mask id="mask-2" fill="white">
                  <use xlink:href="#path-1"></use>
                </mask>
                <g id="Clip-11"></g>
                <path d="M0,30.0986948 C4.1644765,29.0560528 7.2294138,24.8390192 7.2294138,20.7874484 L7.2294138,-0.000793314571 L0,-0.000793314571 L0,16.6316133 L0,19.2053524 L0,29.7394366 L0,30.0986948 Z" id="Fill-10" fill="#F00A0A" mask="url(#mask-2)"></path>
              </g>
            </g>
          </g>
        </g>
      </g>
    </svg>